HIERARCHY
ROOT Hips
{
 OFFSET 0.000000 0.000000 0.000000
 CHANNELS 6 Xposition Yposition Zposition Yrotation Xrotation Zrotation
 JOINT Chest
 {
  OFFSET 0.000000 9.585900 0.002600
  CHANNELS 3 Yrotation Xrotation Zrotation
  JOINT Chest2
  {
   OFFSET 0.000000 9.601200 -0.005300
   CHANNELS 3 Yrotation Xrotation Zrotation
   JOINT Chest3
   {
    OFFSET 0.000000 9.561800 0.000000
    CHANNELS 3 Yrotation Xrotation Zrotation
    JOINT Chest4
    {
     OFFSET 0.000000 9.552100 0.000000
     CHANNELS 3 Yrotation Xrotation Zrotation
     JOINT Neck
     {
      OFFSET 0.000000 14.453000 0.000000
      CHANNELS 3 Yrotation Xrotation Zrotation
      JOINT Head
      {
       OFFSET 0.000000 8.936500 -0.011300
       CHANNELS 3 Yrotation Xrotation Zrotation
       End Site
       {
        OFFSET 0.000000 17.073600 -0.006000
       }
      }
     }
     JOINT RightCollar
     {
      OFFSET -2.921100 9.558500 0.000000
      CHANNELS 3 Yrotation Xrotation Zrotation
      JOINT RightShoulder
      {
       OFFSET -13.519700 0.000000 0.000000
       CHANNELS 3 Yrotation Xrotation Zrotation
       JOINT RightElbow
       {
        OFFSET 0.000000 -29.696600 0.000000
        CHANNELS 3 Yrotation Xrotation Zrotation
        JOINT RightWrist
        {
         OFFSET 0.000000 -24.004700 0.000000
         CHANNELS 3 Yrotation Xrotation Zrotation
         End Site
         {
          OFFSET 0.000000 -17.728500 0.000000
         }
        }
       }
      }
     }
     JOINT LeftCollar
     {
      OFFSET 2.921100 9.558500 0.000000
      CHANNELS 3 Yrotation Xrotation Zrotation
      JOINT LeftShoulder
      {
       OFFSET 13.519700 0.000000 0.000000
       CHANNELS 3 Yrotation Xrotation Zrotation
       JOINT LeftElbow
       {
        OFFSET 0.000000 -29.696600 0.000000
        CHANNELS 3 Yrotation Xrotation Zrotation
        JOINT LeftWrist
        {
         OFFSET 0.000000 -24.004700 0.000000
         CHANNELS 3 Yrotation Xrotation Zrotation
         End Site
         {
          OFFSET 0.000000 -17.728500 0.000000
         }
        }
       }
      }
     }
    }
   }
  }
 }
 JOINT RightHip
 {
  OFFSET -7.771700 -0.012900 -0.001300
  CHANNELS 3 Yrotation Xrotation Zrotation
  JOINT RightKnee
  {
   OFFSET 0.000000 -40.869800 0.001200
   CHANNELS 3 Yrotation Xrotation Zrotation
   JOINT RightAnkle
   {
    OFFSET 0.000000 -39.717900 0.002100
    CHANNELS 3 Yrotation Xrotation Zrotation
    JOINT RightToe
    {
     OFFSET 0.000000 -4.965400 11.033500
     CHANNELS 3 Yrotation Xrotation Zrotation
     End Site
     {
      OFFSET 0.000000 -1.423100 5.872300
     }
    }
   }
  }
 }
 JOINT LeftHip
 {
  OFFSET 7.771700 -0.012900 -0.001300
  CHANNELS 3 Yrotation Xrotation Zrotation
  JOINT LeftKnee
  {
   OFFSET 0.000000 -40.869800 0.001200
   CHANNELS 3 Yrotation Xrotation Zrotation
   JOINT LeftAnkle
   {
    OFFSET 0.000000 -39.717900 0.002100
    CHANNELS 3 Yrotation Xrotation Zrotation
    JOINT LeftToe
    {
     OFFSET 0.000000 -4.965400 11.033500
     CHANNELS 3 Yrotation Xrotation Zrotation
     End Site
     {
      OFFSET 0.000000 -1.423100 5.872300
     }
    }
   }
  }
 }
}
MOTION
Frames: 5
Frame Time: 0.008333
-119.681503 58.623777 101.434434 177.037967 -29.216169 -1.824046 5.789819 14.892757 3.177725 0.550668 1.431698 0.160789 0.815696 2.486536 0.334395 4.928810 13.209124 2.114240 -7.942523 17.941816 -1.568035 -14.025145 -2.360673 -0.411961 -1.916691 0.197991 0.662260 -4.248312 -9.842401 -5.716688 115.126090 -69.829817 -93.834338 12.327078 -22.369633 -49.695836 0.391008 2.544155 4.561548 21.997712 -3.613668 -2.973835 -131.827282 -57.097183 120.474153 -8.679535 -19.678034 32.877635 4.566748 -44.409072 -2.108519 -8.235268 67.718662 -8.741030 4.698934 19.912745 4.211673 -0.369793 -14.372951 1.686220 -8.234052 -43.569939 2.368361 25.731729 65.108485 24.243905 -15.156101 6.550166 -3.865602 -0.380038 -0.544385 -0.255414
-119.693042 58.612764 101.445037 176.975998 -29.184016 -1.800119 5.806774 14.894372 3.190164 0.544615 1.430642 0.161440 0.827383 2.479271 0.333811 4.869486 13.241529 2.180333 -7.721940 17.823524 -1.656624 -13.652310 -2.545519 -0.543449 -1.847943 0.153133 0.580249 -4.221905 -9.890527 -5.678471 115.243955 -69.730994 -94.176890 12.315275 -22.360939 -49.703714 0.401738 2.485690 4.519541 22.162384 -3.629670 -2.857845 -131.903584 -56.930749 120.860271 -8.679257 -19.675559 32.860658 4.602004 -44.501074 -2.104534 -8.201748 67.738041 -8.725272 4.713779 20.091084 4.223787 -0.369272 -14.512966 1.687255 -8.198361 -43.605706 2.374921 25.734953 65.111922 24.257755 -15.173425 6.525203 -3.884290 -0.380557 -0.516631 -0.233227
-119.691551 58.602832 101.454661 176.849871 -29.160948 -1.827060 5.904389 14.895043 3.286764 0.505858 1.465116 0.186000 0.889518 2.420120 0.296060 4.821611 13.275557 2.233066 -7.525127 17.726581 -1.711642 -13.293129 -2.722830 -0.669572 -1.816077 0.127486 0.560564 -4.214661 -9.986486 -5.633920 115.275700 -69.612423 -94.385178 12.301879 -22.348007 -49.711295 0.380554 2.433862 4.503900 22.332626 -3.646199 -2.739650 -131.970468 -56.751110 121.250900 -8.678927 -19.667512 32.843866 4.626724 -44.566280 -1.989663 -8.298107 67.699984 -8.826638 4.837111 20.258704 4.292855 -0.419353 -14.623062 1.659839 -8.186263 -43.624541 2.485319 25.783048 65.123689 24.325888 -15.139368 6.506725 -3.865842 -0.410514 -0.503421 -0.240797
-119.708933 58.594406 101.459066 176.850494 -29.156420 -1.805147 5.865980 14.927891 3.270480 0.504448 1.465448 0.188008 0.882044 2.422147 0.300654 4.814930 13.276287 2.248559 -7.342271 17.643571 -1.748842 -12.947879 -2.891187 -0.789833 -1.809034 0.117397 0.596504 -4.183265 -10.058818 -5.687877 115.434738 -69.528252 -94.740652 12.286762 -22.335641 -49.718541 0.373064 2.393222 4.480970 22.477215 -3.681974 -2.605799 -132.025209 -56.563088 121.644160 -8.682824 -19.660044 32.825823 4.651988 -44.593134 -2.035493 -8.307727 67.701379 -8.836004 4.825788 20.346955 4.277944 -0.393727 -14.687157 1.673991 -8.167240 -43.633250 2.437813 25.822383 65.121099 24.376263 -15.191725 6.451085 -3.883836 -0.356333 -0.453610 -0.227063
-119.711205 58.587129 101.463252 176.791968 -29.159162 -1.848275 5.913595 14.947286 3.349308 0.497479 1.474026 0.194154 0.877600 2.422532 0.304699 4.823335 13.262374 2.242738 -7.177232 17.584798 -1.759921 -12.616831 -3.051507 -0.904509 -1.804388 0.110176 0.613292 -4.182532 -10.115578 -5.705922 115.592353 -69.447259 -95.092518 12.270590 -22.326434 -49.724896 0.330484 2.364113 4.487401 22.642974 -3.716222 -2.482949 -132.064849 -56.365206 122.034714 -8.690341 -19.655340 32.803334 4.635307 -44.619897 -1.940868 -8.373964 67.671950 -8.907237 4.913676 20.497376 4.325295 -0.430959 -14.794623 1.661037 -8.164519 -43.627555 2.497656 25.867593 65.117846 24.448407 -15.147574 6.463293 -3.837696 -0.393966 -0.453121 -0.245196
